<svg xmlns="http://www.w3.org/2000/svg" xmlns:xlink="http://www.w3.org/1999/xlink" viewBox="0,0,256,256" width="200px" height="200px" fill-rule="nonzero"><g transform=""><g fill="#dddddd" fill-rule="nonzero" stroke="none" stroke-width="1" stroke-linecap="butt" stroke-linejoin="miter" stroke-miterlimit="10" stroke-dasharray="" stroke-dashoffset="0" font-family="none" font-weight="none" font-size="none" text-anchor="none" style="mix-blend-mode: normal"><path d="M0,256v-256h256v256z" id="bgRectangle"></path></g><g fill="none" fill-rule="nonzero" stroke="none" stroke-width="1" stroke-linecap="butt" stroke-linejoin="miter" stroke-miterlimit="10" stroke-dasharray="" stroke-dashoffset="0" font-family="none" font-weight="none" font-size="none" text-anchor="none" style="mix-blend-mode: normal"><g transform="scale(2.56,2.56)"><path d="M87.215,55.71c1.135,-2.155 1.785,-4.605 1.785,-7.21c0,-6.621 -4.159,-12.257 -10.001,-14.478c0,-0.007 0.001,-0.014 0.001,-0.022c0,-11.598 -9.402,-21 -21,-21c-9.784,0 -17.981,6.701 -20.313,15.757c-1.476,-0.485 -3.049,-0.757 -4.687,-0.757c-7.692,0 -14.023,5.793 -14.89,13.252c-5.204,1.101 -9.11,5.717 -9.11,11.248c0,6.351 5.149,11.5 11.5,11.5c0.177,0 0.352,-0.012 0.526,-0.022c-0.004,0.175 -0.026,0.346 -0.026,0.522c0,11.322 9.178,20.5 20.5,20.5c6.437,0 12.175,-2.972 15.934,-7.614c2.178,2.225 5.206,3.614 8.566,3.614c4.65,0 8.674,-2.65 10.666,-6.518c1.052,0.335 2.171,0.518 3.334,0.518c6.075,0 11,-4.925 11,-11c0,-3.311 -1.47,-6.273 -3.785,-8.29z" fill="#c7ede6"></path><path d="M26.5,35h-10c-0.276,0 -0.5,-0.224 -0.5,-0.5c0,-0.276 0.224,-0.5 0.5,-0.5h10c0.276,0 0.5,0.224 0.5,0.5c0,0.276 -0.224,0.5 -0.5,0.5z" fill="#ffffff"></path><path d="M30.5,35h-2c-0.276,0 -0.5,-0.224 -0.5,-0.5c0,-0.276 0.224,-0.5 0.5,-0.5h2c0.276,0 0.5,0.224 0.5,0.5c0,0.276 -0.224,0.5 -0.5,0.5z" fill="#ffffff"></path><path d="M35.5,37h-10c-0.276,0 -0.5,-0.224 -0.5,-0.5c0,-0.276 0.224,-0.5 0.5,-0.5h10c0.276,0 0.5,0.224 0.5,0.5c0,0.276 -0.223,0.5 -0.5,0.5z" fill="#ffffff"></path><path d="M23.5,37h-1c-0.276,0 -0.5,-0.224 -0.5,-0.5c0,-0.276 0.224,-0.5 0.5,-0.5h1c0.276,0 0.5,0.224 0.5,0.5c0,0.276 -0.224,0.5 -0.5,0.5z" fill="#ffffff"></path><path d="M29.5,33h-5c-0.276,0 -0.5,-0.224 -0.5,-0.5c0,-0.276 0.224,-0.5 0.5,-0.5h5c0.276,0 0.5,0.224 0.5,0.5c0,0.276 -0.223,0.5 -0.5,0.5z" fill="#ffffff"></path><path d="M26.5,39h-2c-0.276,0 -0.5,-0.224 -0.5,-0.5c0,-0.276 0.224,-0.5 0.5,-0.5h2c0.276,0 0.5,0.224 0.5,0.5c0,0.276 -0.224,0.5 -0.5,0.5z" fill="#ffffff"></path><g><path d="M70.164,39.194v0.5h-3v-0.5c0,0 -4.242,0 -5.5,0c-2.485,0 -4.5,-2.015 -4.5,-4.5c0,-2.333 1.782,-4.229 4.055,-4.455c-0.022,-0.181 -0.055,-0.358 -0.055,-0.545c0,-2.485 2.015,-4.5 4.5,-4.5c1.438,0 2.703,0.686 3.527,1.736c0.14,-2.636 2.302,-4.736 4.973,-4.736c2.761,0 5,2.239 5,5c0,0.446 -0.077,0.87 -0.187,1.282c0.642,-0.777 1.6,-1.282 2.687,-1.282c1.781,0 3.234,1.335 3.455,3.055c0.181,-0.022 0.358,-0.055 0.545,-0.055c2.485,0 4.5,2.015 4.5,4.5c0,2.485 -2.015,4.5 -4.5,4.5c-2.485,0 -9.5,0 -9.5,0z" fill="#fdfcef"></path><path d="M74.164,21.694c3.033,0 5.5,2.467 5.5,5.5c0,0.016 0,0.031 0,0.047c0.602,-0.355 1.29,-0.547 2,-0.547c1.831,0 3.411,1.261 3.858,3.005c0.047,-0.003 0.094,-0.005 0.142,-0.005c2.757,0 5,2.243 5,5c0,2.757 -2.243,5 -5,5h-15.5c-0.276,0 -0.5,-0.224 -0.5,-0.5c0,-0.276 0.224,-0.5 0.5,-0.5h15.5c2.206,0 4,-1.794 4,-4c0,-2.206 -1.794,-4 -4,-4c-0.117,0 -0.23,0.017 -0.343,0.032l-0.141,0.019c-0.021,0.003 -0.041,0.004 -0.062,0.004c-0.246,0 -0.462,-0.185 -0.495,-0.437c-0.191,-1.493 -1.463,-2.618 -2.959,-2.618c-0.885,0 -1.723,0.401 -2.301,1.1c-0.098,0.118 -0.241,0.182 -0.386,0.182c-0.078,0 -0.156,-0.018 -0.228,-0.056c-0.209,-0.107 -0.314,-0.346 -0.254,-0.573c0.115,-0.435 0.169,-0.801 0.169,-1.153c0,-2.481 -2.019,-4.5 -4.5,-4.5c-2.381,0 -4.347,1.872 -4.474,4.263c-0.011,0.208 -0.15,0.387 -0.349,0.45c-0.05,0.016 -0.101,0.024 -0.152,0.024c-0.15,0 -0.296,-0.069 -0.392,-0.192c-0.771,-0.982 -1.912,-1.545 -3.133,-1.545c-2.206,0 -4,1.794 -4,4c0,0.117 0.017,0.23 0.032,0.343l0.019,0.141c0.016,0.134 -0.022,0.268 -0.106,0.373c-0.084,0.105 -0.207,0.172 -0.34,0.185c-2.056,0.205 -3.605,1.907 -3.605,3.958c0,2.206 1.794,4 4,4h5.5c0.276,0 0.5,0.224 0.5,0.5c0,0.276 -0.224,0.5 -0.5,0.5h-5.5c-2.757,0 -5,-2.243 -5,-5c0,-2.397 1.689,-4.413 4.003,-4.877c-0.002,-0.041 -0.003,-0.082 -0.003,-0.123c0,-2.757 2.243,-5 5,-5c1.176,0 2.293,0.416 3.183,1.164c0.598,-2.404 2.762,-4.164 5.317,-4.164z" fill="#472b29"></path><path d="M75.664,28.694c1.403,0 2.609,0.999 2.913,2.341c0.367,-0.222 0.786,-0.341 1.212,-0.341c1.202,0 2.198,0.897 2.353,2.068c0.203,-0.046 0.396,-0.068 0.585,-0.068c1.529,0 2.811,1.2 2.918,2.732c0.009,0.138 -0.095,0.258 -0.232,0.268c-0.006,0 -0.012,0 -0.018,0c-0.13,0 -0.24,-0.101 -0.249,-0.232c-0.089,-1.271 -1.151,-2.268 -2.419,-2.268c-0.229,0 -0.47,0.042 -0.738,0.127c-0.022,0.007 -0.045,0.01 -0.067,0.01c-0.055,0 -0.11,-0.02 -0.156,-0.054c-0.064,-0.046 -0.102,-0.128 -0.102,-0.208c0,-1.034 -0.841,-1.875 -1.875,-1.875c-0.447,0 -0.885,0.168 -1.231,0.473c-0.047,0.041 -0.106,0.063 -0.165,0.063c-0.032,0 -0.063,-0.006 -0.093,-0.019c-0.088,-0.035 -0.148,-0.117 -0.155,-0.212c-0.104,-1.293 -1.193,-2.305 -2.481,-2.305c-0.208,0 -0.425,0.034 -0.682,0.107c-0.023,0.007 -0.047,0.01 -0.07,0.01c-0.109,0 -0.207,-0.073 -0.239,-0.182c-0.038,-0.133 0.039,-0.271 0.172,-0.309c0.302,-0.086 0.563,-0.126 0.819,-0.126z" fill="#472b29"></path><path d="M61.781,30.194c1.326,0 2.508,0.897 2.874,2.182c0.038,0.133 -0.039,0.271 -0.172,0.309c-0.024,0.006 -0.047,0.009 -0.069,0.009c-0.109,0 -0.209,-0.072 -0.24,-0.182c-0.305,-1.07 -1.289,-1.818 -2.393,-1.818c-0.117,0 -0.23,0.014 -0.342,0.029c-0.012,0.002 -0.023,0.003 -0.035,0.003c-0.121,0 -0.229,-0.092 -0.246,-0.217c-0.019,-0.137 0.077,-0.263 0.214,-0.281c0.134,-0.018 0.27,-0.034 0.409,-0.034z" fill="#472b29"></path></g><g fill="#ffffff"><path d="M26.5,73h-10c-0.276,0 -0.5,-0.224 -0.5,-0.5c0,-0.276 0.224,-0.5 0.5,-0.5h10c0.276,0 0.5,0.224 0.5,0.5c0,0.276 -0.223,0.5 -0.5,0.5z"></path></g><g><circle cx="51" cy="50" r="23" fill="#78a2d2"></circle><path d="M50.999,27.4c12.462,0 22.601,10.138 22.601,22.599c0,12.462 -10.139,22.601 -22.601,22.601c-12.461,0 -22.599,-10.138 -22.599,-22.6c0,-12.462 10.138,-22.6 22.599,-22.6M50.999,26c-13.234,0 -23.999,10.766 -23.999,24c0,13.234 10.765,24 23.999,24c13.235,0 24.001,-10.767 24.001,-24.001c0,-13.234 -10.766,-23.999 -24.001,-23.999z" fill="#472b29"></path><path d="M68.399,59.188c-0.073,0 -0.148,-0.017 -0.218,-0.051c-0.249,-0.121 -0.352,-0.42 -0.231,-0.668c0.126,-0.259 0.246,-0.52 0.359,-0.782c0.44,-1.021 0.79,-2.089 1.041,-3.176c0.063,-0.27 0.331,-0.438 0.6,-0.375c0.269,0.063 0.437,0.331 0.375,0.6c-0.265,1.146 -0.634,2.271 -1.097,3.347c-0.119,0.277 -0.245,0.552 -0.378,0.824c-0.088,0.178 -0.266,0.281 -0.451,0.281z" fill="#472b29"></path><path d="M70.411,52.378c-0.015,0 -0.03,-0.001 -0.045,-0.002c-0.275,-0.025 -0.478,-0.269 -0.453,-0.543c0.037,-0.409 0.061,-0.82 0.071,-1.23c0.064,-2.552 -0.374,-5.047 -1.299,-7.417c-0.101,-0.257 0.027,-0.547 0.284,-0.647c0.259,-0.101 0.547,0.025 0.648,0.284c0.975,2.493 1.435,5.12 1.368,7.806c-0.011,0.432 -0.036,0.864 -0.075,1.295c-0.025,0.259 -0.243,0.454 -0.499,0.454z" fill="#472b29"></path><path d="M36.734,37.24c-0.123,0 -0.245,-0.045 -0.341,-0.135c-0.202,-0.188 -0.212,-0.505 -0.024,-0.706c3.259,-3.491 7.669,-5.696 12.418,-6.209c0.279,-0.033 0.521,0.169 0.551,0.443c0.03,0.274 -0.169,0.521 -0.443,0.551c-4.511,0.487 -8.7,2.582 -11.794,5.896c-0.1,0.107 -0.233,0.16 -0.367,0.16z" fill="#472b29"></path><path d="M37.721,64.782c-0.123,0 -0.245,-0.045 -0.341,-0.135c-6.812,-6.36 -8.363,-16.435 -3.772,-24.499c0.136,-0.241 0.441,-0.323 0.682,-0.188c0.24,0.137 0.324,0.442 0.187,0.682c-4.36,7.661 -2.886,17.231 3.586,23.274c0.202,0.188 0.212,0.505 0.024,0.706c-0.099,0.107 -0.232,0.16 -0.366,0.16z" fill="#472b29"></path><g fill="#472b29"><path d="M59.515,68.119c-0.186,0 -0.365,-0.104 -0.451,-0.283c-0.12,-0.248 -0.016,-0.547 0.233,-0.667c2.107,-1.016 3.992,-2.405 5.604,-4.13c0.65,-0.697 1.251,-1.445 1.786,-2.225c0.156,-0.226 0.468,-0.283 0.695,-0.129c0.228,0.156 0.286,0.468 0.129,0.695c-0.563,0.819 -1.195,1.607 -1.879,2.34c-1.696,1.816 -3.681,3.279 -5.9,4.349c-0.071,0.035 -0.145,0.05 -0.217,0.05z"></path></g></g><g><path d="M63.763,42.197l-1.969,-2.488c-0.376,-0.475 -1.066,-0.555 -1.541,-0.179c0,0 -0.61,0.38 -0.702,0.418c-1.673,0.688 -3.123,0.225 -5.541,-0.653c-2.285,-0.83 -5.129,-1.861 -8.599,-1.283c-2.577,0.429 -3.957,1.776 -4.66,2.83c-1.647,2.468 -1.029,5.392 -0.954,5.718c0.296,1.269 1.431,2.139 2.681,2.139c0.204,0 0.41,-0.023 0.617,-0.071c1.475,-0.344 2.397,-1.8 2.053,-3.276c-0.06,-0.297 -0.099,-1.08 0.172,-1.473c0.15,-0.217 0.484,-0.37 0.992,-0.455c2.05,-0.342 3.8,0.293 5.826,1.029c0.427,0.155 0.865,0.313 1.311,0.463l-15.033,11.9c-0.475,0.376 -0.555,1.066 -0.179,1.541l1.969,2.488c0.376,0.475 1.066,0.555 1.541,0.179c0,0 0.812,-0.42 0.991,-0.481c1.623,-0.549 2.832,-0.213 5.003,0.482c1.617,0.517 3.537,1.132 5.882,1.132c0.707,0 1.453,-0.056 2.241,-0.188c2.577,-0.429 3.956,-1.776 4.66,-2.83c1.647,-2.468 1.03,-5.392 0.954,-5.718c-0.344,-1.475 -1.818,-2.392 -3.294,-2.049c-1.475,0.343 -2.393,1.818 -2.049,3.294c0.041,0.176 0.103,1.012 -0.174,1.428c-0.148,0.222 -0.484,0.379 -0.998,0.465c-2.089,0.348 -3.693,-0.164 -5.549,-0.758c-0.25,-0.08 -0.505,-0.161 -0.762,-0.241l14.933,-11.821c0.474,-0.377 0.554,-1.067 0.178,-1.542z" fill="#fdfcef"></path><path d="M53.623,62.656c-2.424,0 -4.426,-0.641 -6.034,-1.155c-2.125,-0.68 -3.212,-0.983 -4.69,-0.484c-0.097,0.034 -0.554,0.261 -0.922,0.451c-0.61,0.494 -1.616,0.377 -2.163,-0.312l-1.969,-2.488c-0.265,-0.334 -0.383,-0.752 -0.334,-1.176c0.049,-0.424 0.26,-0.803 0.595,-1.067l14.32,-11.337c-0.153,-0.055 -0.304,-0.109 -0.455,-0.163c-1.963,-0.714 -3.654,-1.324 -5.577,-1.008c-0.551,0.092 -0.658,0.239 -0.662,0.246c-0.141,0.205 -0.154,0.793 -0.094,1.09c0.399,1.718 -0.689,3.456 -2.43,3.862c-0.237,0.056 -0.483,0.084 -0.73,0.084c-1.495,0 -2.827,-1.062 -3.168,-2.525c-0.081,-0.347 -0.738,-3.466 1.024,-6.107c0.758,-1.137 2.24,-2.588 4.994,-3.047c3.602,-0.601 6.514,0.457 8.852,1.307c2.369,0.858 3.675,1.275 5.18,0.66c0.11,-0.056 0.626,-0.379 0.628,-0.38c0.644,-0.513 1.651,-0.397 2.198,0.293l1.969,2.488c0.265,0.334 0.383,0.752 0.334,1.176c-0.049,0.424 -0.261,0.804 -0.596,1.068l-14.194,11.234c1.737,0.555 3.255,1.017 5.181,0.698c0.555,-0.093 0.66,-0.243 0.665,-0.249c0.148,-0.222 0.145,-0.845 0.103,-1.038c-0.196,-0.843 -0.052,-1.712 0.405,-2.448c0.458,-0.735 1.174,-1.248 2.018,-1.445c1.741,-0.402 3.489,0.683 3.894,2.423c0.081,0.348 0.736,3.469 -1.025,6.109c-0.759,1.137 -2.242,2.588 -4.994,3.046c-0.776,0.129 -1.557,0.194 -2.323,0.194zM44.325,59.77c1.06,0 2.129,0.318 3.569,0.778c1.623,0.52 3.461,1.108 5.729,1.108c0.71,0 1.437,-0.061 2.159,-0.181c2.399,-0.399 3.677,-1.643 4.326,-2.614c1.528,-2.291 0.954,-5.024 0.883,-5.328c-0.281,-1.203 -1.493,-1.959 -2.694,-1.675c-0.583,0.136 -1.079,0.49 -1.396,0.999c-0.317,0.509 -0.416,1.11 -0.28,1.694c0.042,0.177 0.165,1.204 -0.245,1.818c-0.231,0.347 -0.667,0.569 -1.332,0.681c-2.211,0.367 -3.946,-0.188 -5.784,-0.774l-1.664,-0.521l15.676,-12.408c0.125,-0.1 0.205,-0.241 0.223,-0.399c0.018,-0.158 -0.026,-0.314 -0.125,-0.439l-1.969,-2.488c-0.205,-0.257 -0.581,-0.3 -0.839,-0.098c-0.692,0.436 -0.788,0.475 -0.824,0.489c-1.838,0.755 -3.439,0.247 -5.899,-0.646c-2.229,-0.809 -5.005,-1.814 -8.347,-1.26c-2.4,0.4 -3.678,1.644 -4.326,2.615c-1.529,2.292 -0.953,5.022 -0.883,5.326c0.275,1.182 1.541,1.964 2.697,1.694c1.206,-0.281 1.959,-1.481 1.681,-2.676c-0.068,-0.335 -0.15,-1.294 0.247,-1.87c0.231,-0.337 0.664,-0.556 1.321,-0.665c2.182,-0.365 3.988,0.293 6.079,1.053c0.425,0.153 0.858,0.31 1.3,0.459l0.873,0.294l-15.754,12.471c-0.125,0.1 -0.204,0.241 -0.223,0.399c-0.019,0.158 0.026,0.314 0.125,0.439l1.969,2.488c0.205,0.258 0.582,0.301 0.839,0.098c0.334,-0.184 0.947,-0.497 1.141,-0.562c0.617,-0.209 1.181,-0.299 1.747,-0.299z" fill="#472b29"></path></g><g><path d="M28.511,74.431c0,0 -1.567,0 -3.5,0c-1.933,0 -3.5,-1.567 -3.5,-3.5c0,-1.781 1.335,-3.234 3.055,-3.455c-0.028,-0.179 -0.055,-0.358 -0.055,-0.545c0,-1.933 1.567,-3.5 3.5,-3.5c1.032,0 1.95,0.455 2.59,1.165c0.384,-1.808 1.987,-3.165 3.91,-3.165c2.209,0 4,1.791 4,4c0,0.191 -0.03,0.374 -0.056,0.558c0.428,-0.344 0.964,-0.558 1.556,-0.558c1.228,0 2.245,0.887 2.455,2.055c0.179,-0.028 0.358,-0.055 0.545,-0.055c1.933,0 3.5,1.567 3.5,3.5c0,1.933 -1.567,3.5 -3.5,3.5c-1.933,0 -7.5,0 -7.5,0v0.5h-7z" fill="#fdfcef"></path><path d="M26.761,69.931c0.138,0 0.25,-0.112 0.25,-0.25c0,-1.223 -0.995,-2.218 -2.218,-2.218c-0.034,0.009 -0.737,-0.001 -1.244,0.136c-0.133,0.036 -0.212,0.173 -0.176,0.306c0.036,0.134 0.173,0.213 0.306,0.176c0.444,-0.12 1.1,-0.12 1.113,-0.118c0.948,0 1.719,0.771 1.719,1.718c0,0.138 0.112,0.25 0.25,0.25z" fill="#472b29"></path><circle cx="33.511" cy="74.431" r="0.5" fill="#472b29"></circle><path d="M25.011,74.931h3.5c0.276,0 0.5,-0.224 0.5,-0.5c0,-0.276 -0.224,-0.5 -0.5,-0.5h-3.5c-1.654,0 -3,-1.346 -3,-3c0,-1.496 1.125,-2.768 2.618,-2.959c0.134,-0.018 0.255,-0.088 0.336,-0.196c0.081,-0.108 0.115,-0.244 0.094,-0.377c-0.023,-0.154 -0.048,-0.308 -0.048,-0.468c0,-1.654 1.346,-3 3,-3c0.85,0 1.638,0.355 2.219,1c0.125,0.139 0.321,0.198 0.5,0.148c0.182,-0.049 0.321,-0.195 0.36,-0.379c0.341,-1.604 1.78,-2.769 3.421,-2.769c1.93,0 3.5,1.57 3.5,3.5c0,0.143 -0.021,0.28 -0.041,0.418c-0.029,0.203 0.063,0.438 0.242,0.54c0.179,0.102 0.396,0.118 0.556,-0.01c0.365,-0.293 0.794,-0.448 1.243,-0.448c0.966,0 1.792,0.691 1.963,1.644c0.048,0.267 0.296,0.446 0.569,0.405c0.154,-0.024 0.308,-0.049 0.468,-0.049c1.654,0 3,1.346 3,3c0,1.654 -1.346,3 -3,3h-7.5c-0.276,0 -0.5,0.224 -0.5,0.5c0,0.276 0.224,0.5 0.5,0.5h7.5c2.206,0 4,-1.794 4,-4c0,-2.206 -1.794,-4 -4,-4c-0.059,0 -0.116,0.002 -0.174,0.006c-0.414,-1.186 -1.537,-2.006 -2.826,-2.006c-0.349,0 -0.689,0.061 -1.011,0.18c-0.165,-2.333 -2.115,-4.18 -4.489,-4.18c-1.831,0 -3.466,1.127 -4.153,2.774c-0.68,-0.498 -1.502,-0.774 -2.347,-0.774c-2.206,0 -4,1.794 -4,4c0,0.048 0.001,0.095 0.004,0.142c-1.743,0.448 -3.004,2.027 -3.004,3.858c0,2.206 1.794,4 4,4z" fill="#472b29"></path><path d="M30.511,73.931c0.159,0 0.841,0 1,0c0.276,0 0.5,0.224 0.5,0.5c0,0.276 -0.224,0.5 -0.5,0.5c-0.159,0 -0.841,0 -1,0c-0.276,0 -0.5,-0.224 -0.5,-0.5c0,-0.276 0.224,-0.5 0.5,-0.5z" fill="#472b29"></path></g></g></g></g></svg>